# xmcd CD database file
#
# Track frame offsets:
#	150
#	15853
#	41365
#	69671
#	102557
#	128132
#	159782
#	180128
#	220103
#	232929
#	257154
#	292255
#	322555
#
# Disc length: 4782 seconds
#
# Revision: 0
# Processed by: cddbd v1.5.2PL0 Copyright (c) Steve Scherf et al.
# Submitted via: CDex 1.77
#
DISCID=9f12ac0d
DTITLE=Musica Jazz (Magazine) - TOP JAZZ 2016
DYEAR=2017
DGENRE=Jazz
TTITLE0=Bill Evans and Claus Ogerman - Hollywood
TTITLE1=Albert Ayler Quartet - No Name
TTITLE2=Peter Erskine Trio - Evans Above
TTITLE3=Filippo Vignato - Other Each
TTITLE4=Lee Konitz - Just Friend
TTITLE5=Tino Tracanna Acrobats - Mercato dei Pazzi
TTITLE6=Guidi Petrella Sclavs Cleaver - Ida Lupino
TTITLE7=Jack De Jonette - Serpentine Fire
TTITLE8=Charlie Parker - Night and day
TTITLE9=Franco D'Andrea Piano Trio - Rag and Blues
TTITLE10=Double Cut - Surf on Neptune
TTITLE11=Lydian Sound Orchestra - Un Capanno (di Montagna) in Mezzo al Mare
TTITLE12=Mette Henriette - I
EXTD=YEAR: 2017
EXTT0=
EXTT1=
EXTT2=
EXTT3=
EXTT4=
EXTT5=
EXTT6=
EXTT7=
EXTT8=
EXTT9=
EXTT10=
EXTT11=
EXTT12=
PLAYORDER=
